<?xml version="1.0" encoding="UTF-8" standalone="no"?>
<!DOCTYPE svg PUBLIC "-//W3C//DTD SVG 1.1//EN" "http://www.w3.org/Graphics/SVG/1.1/DTD/svg11.dtd">
<svg width="100%" height="100%" viewBox="0 0 136 105" version="1.1" xmlns="http://www.w3.org/2000/svg" xmlns:xlink="http://www.w3.org/1999/xlink" xml:space="preserve" xmlns:serif="http://www.serif.com/" style="fill-rule:evenodd;clip-rule:evenodd;stroke-linecap:round;stroke-linejoin:round;stroke-miterlimit:1.5;">
    <g transform="matrix(1,0,0,1,-640.298,-861.819)">
        <g transform="matrix(0.203451,0,0,0.203451,624.687,743.331)">
            <g transform="matrix(1,0,0,1,0,-655.493)">
                <g id="path47" transform="matrix(1,0,0,1,29.8634,1237.89)">
                    <path d="M256,28.84C221.926,28.831 190.038,33.162 162.88,40.56C135.723,47.921 113.328,58.46 98.36,70.16C88.348,77.948 81.748,86.113 78.48,93.72C76.601,98.086 75.73,102.266 75.72,106.56L75.72,121.96C77.772,126.354 80.682,130.752 84.64,135.2C93.171,144.775 106.286,154.041 122.96,161.92C156.28,177.73 203.628,187.907 256,187.88C295.285,187.888 331.716,182.188 361.56,172.64C391.413,163.145 414.58,149.605 427.36,135.2C431.317,130.752 434.229,126.323 436.28,121.92L436.28,106.56C436.27,102.266 435.398,98.086 433.52,93.72C431.64,89.364 428.706,84.858 424.64,80.32C416.552,71.225 403.876,62.146 387.52,54.44C354.835,38.919 307.91,28.794 256,28.84ZM436.28,156.68C425.997,166.111 413.251,174.4 398.32,181.48C361.178,199.025 311.16,209.493 256,209.52C214.637,209.52 176.144,203.6 143.84,193.28C115.821,184.267 92.404,172.058 75.72,156.8L75.72,221.56C77.772,225.962 80.722,230.392 84.68,234.84C93.211,244.416 106.286,253.69 122.96,261.56C156.28,277.363 203.628,287.508 256,287.48C295.285,287.489 331.716,281.829 361.56,272.28C391.413,262.795 414.58,249.235 427.36,234.84C431.317,230.392 434.229,225.962 436.28,221.56L436.28,156.68ZM436.28,256.32C425.997,265.751 413.251,274.04 398.32,281.12C361.178,298.658 311.16,309.092 256,309.12C214.637,309.11 176.144,303.191 143.84,292.88C115.821,283.876 92.404,271.689 75.72,256.44L75.72,321.2C77.772,325.592 80.722,330.024 84.68,334.48C93.211,344.057 106.286,353.33 122.96,361.2C156.28,377.01 203.628,387.147 256,387.12C295.285,387.128 331.716,381.468 361.56,371.92C391.413,362.426 414.58,348.876 427.36,334.48C431.317,330.024 434.229,325.602 436.28,321.2L436.28,256.32ZM436.28,355.96C425.997,365.39 413.251,373.68 398.32,380.76C361.178,398.296 311.16,408.733 256,408.76C214.637,408.751 176.144,402.84 143.84,392.52C115.821,383.515 92.404,371.33 75.72,356.08L75.72,405.44C75.729,409.733 76.6,413.914 78.48,418.28C80.359,422.628 83.294,427.142 87.36,431.68C95.438,440.766 108.123,449.845 124.48,457.56C157.165,473.082 204.091,483.206 256,483.16C290.074,483.169 321.962,478.828 349.12,471.44C376.277,464.071 398.673,453.54 413.64,441.84C423.652,434.061 430.252,425.877 433.52,418.28C435.399,413.915 436.271,409.733 436.28,405.44L436.28,355.96Z" style="fill:white;fill-rule:nonzero;"/>
                </g>
                <g id="path471" serif:id="path47" transform="matrix(1,0,0,1,29.8634,1237.89)">
                    <path d="M459.991,82.262C454.173,68.874 444.125,57.346 431.381,47.408C412.202,32.512 386.623,20.886 356.707,12.717C326.789,4.575 292.498,0 256,0C200.378,0.036 149.929,10.548 112.152,28.374C93.263,37.333 77.46,48.134 65.842,61.087C60.051,67.567 55.322,74.629 52.01,82.263C48.706,89.897 46.864,98.129 46.872,106.553L46.872,405.44C46.864,413.863 48.706,422.105 52.01,429.73C57.828,443.118 67.876,454.645 80.62,464.593C99.8,479.489 125.377,491.116 155.295,499.285C185.211,507.425 219.503,511.992 256,512C311.632,511.954 362.07,501.454 399.848,483.617C418.736,474.659 434.539,463.866 446.157,450.905C451.949,444.433 456.677,437.371 459.99,429.729C463.294,422.105 465.136,413.862 465.127,405.439L465.127,106.552C465.137,98.128 463.295,89.896 459.991,82.262ZM436.282,405.44C436.273,409.733 435.393,413.918 433.514,418.283C430.246,425.88 423.665,434.049 413.653,441.828C398.686,453.528 376.284,464.085 349.127,471.454C321.969,478.842 290.073,483.163 255.999,483.154C204.09,483.2 157.181,473.07 124.496,457.548C108.139,449.833 95.432,440.774 87.354,431.688C83.288,427.15 80.365,422.63 78.486,418.282C76.606,413.916 75.726,409.732 75.717,405.439L75.717,356.079C92.401,371.329 115.828,383.509 143.847,392.514C176.151,402.834 214.636,408.761 255.999,408.77C311.159,408.743 361.163,398.277 398.305,380.741C413.236,373.661 425.998,365.373 436.281,355.943L436.281,405.44L436.282,405.44ZM436.282,321.198C434.231,325.6 431.299,330.012 427.342,334.468C414.562,348.864 391.425,362.416 361.572,371.91C331.728,381.458 295.285,387.14 256,387.132C203.628,387.159 156.274,376.992 122.954,361.182C106.28,353.312 93.191,344.045 84.66,334.468C80.702,330.012 77.77,325.6 75.718,321.208L75.718,256.454C92.402,271.703 115.829,283.884 143.848,292.888C176.152,303.199 214.637,309.126 256,309.136C311.16,309.108 361.164,298.644 398.306,281.106C413.237,274.026 425.999,265.749 436.282,256.318L436.282,321.198ZM436.282,221.572C434.231,225.974 431.299,230.385 427.342,234.833C414.562,249.228 391.425,262.789 361.572,272.274C331.728,281.823 295.285,287.505 256,287.496C203.628,287.524 156.274,277.358 122.954,261.555C106.28,253.685 93.191,244.409 84.66,234.833C80.702,230.385 77.77,225.974 75.718,221.572L75.718,156.818C92.402,172.076 115.829,184.248 143.848,193.261C176.152,203.581 214.637,209.508 256,209.508C311.16,209.481 361.164,199.024 398.306,181.479C413.237,174.399 425.999,166.121 436.282,156.69L436.282,221.572ZM436.282,121.936C434.231,126.339 431.299,130.759 427.342,135.207C414.562,149.612 391.425,163.163 361.572,172.658C331.728,182.206 295.285,187.888 256,187.88C203.628,187.907 156.274,177.74 122.954,161.93C106.28,154.051 93.191,144.783 84.66,135.208C80.702,130.76 77.77,126.34 75.718,121.946L75.718,106.552C75.728,102.258 76.608,98.083 78.487,93.717C81.755,86.11 88.335,77.951 98.347,70.163C113.315,58.463 135.716,47.907 162.873,40.546C190.031,33.148 221.926,28.837 256,28.846C307.91,28.8 354.819,38.931 387.504,54.452C403.86,62.158 416.558,71.217 424.646,80.312C428.712,84.85 431.634,89.362 433.514,93.718C435.392,98.084 436.272,102.259 436.282,106.553L436.282,121.936Z" style="fill-rule:nonzero;"/>
                </g>
            </g>
            <g>
                <g transform="matrix(5.58157,0,0,4.59252,-3756.03,-2791.53)">
                    <path d="M767.794,753.857L804.336,826.942L731.251,826.942L767.794,753.857Z" style="fill:rgb(255,221,0);stroke:white;stroke-width:4.01px;"/>
                </g>
                <g transform="matrix(5.58157,0,0,5.58157,-1247.87,-4873.01)">
                    <g transform="matrix(50,0,0,50,326.85,1046.72)">
                    </g>
                    <text x="310.2px" y="1046.72px" style="font-family:'Arial-BoldMT', 'Arial', sans-serif;font-weight:700;font-size:50px;fill:rgb(255,250,250);">!</text>
                </g>
            </g>
        </g>
    </g>
</svg>
