<?xml version="1.0" encoding="UTF-8" standalone="no"?>
<!-- Uploaded to: SVG Repo, www.svgrepo.com, Generator: SVG Repo Mixer Tools -->

<svg
   height="25px"
   width="25px"
   version="1.1"
   id="_x32_"
   viewBox="0 0 512 512"
   xml:space="preserve"
   sodipodi:docname="DatasourceIcon.svg"
   inkscape:version="1.2.2 (b0a8486541, 2022-12-01)"
   xmlns:inkscape="http://www.inkscape.org/namespaces/inkscape"
   xmlns:sodipodi="http://sodipodi.sourceforge.net/DTD/sodipodi-0.dtd"
   xmlns="http://www.w3.org/2000/svg"
   xmlns:svg="http://www.w3.org/2000/svg"><defs
   id="defs54" /><sodipodi:namedview
   id="namedview52"
   pagecolor="#505050"
   bordercolor="#eeeeee"
   borderopacity="1"
   inkscape:showpageshadow="0"
   inkscape:pageopacity="0"
   inkscape:pagecheckerboard="0"
   inkscape:deskcolor="#505050"
   showgrid="false"
   inkscape:zoom="31.4"
   inkscape:cx="1.8630573"
   inkscape:cy="2.8821656"
   inkscape:window-width="3374"
   inkscape:window-height="1371"
   inkscape:window-x="0"
   inkscape:window-y="0"
   inkscape:window-maximized="1"
   inkscape:current-layer="_x32_" />
<style
   type="text/css"
   id="style45">
	.st0{fill:#000000;}
</style>
<g
   id="g49">
	<path
   id="path47"
   style="display:inline;fill:#ffffff"
   class="st0"
   inkscape:label="path47"
   d="M 256 28.84 C 221.92603 28.831 190.03797 33.162007 162.88 40.56 C 135.72303 47.920993 113.32799 58.460012 98.36 70.16 C 88.34801 77.947992 81.747997 86.113008 78.48 93.72 C 76.601002 98.085996 75.73 102.266 75.72 106.56 L 75.72 121.96 C 77.771998 126.354 80.682004 130.752 84.64 135.2 C 93.170991 144.77499 106.28602 154.04101 122.96 161.92 C 156.27997 177.72998 203.62805 187.907 256 187.88 C 295.28496 187.888 331.71603 182.18799 361.56 172.64 C 391.41297 163.14501 414.58001 149.60499 427.36 135.2 C 431.317 130.752 434.229 126.323 436.28 121.92 L 436.28 106.56 C 436.27 102.266 435.398 98.085996 433.52 93.72 C 431.64 89.364004 428.706 84.857995 424.64 80.32 C 416.55201 71.225009 403.87598 62.145992 387.52 54.44 C 354.83503 38.919016 307.90995 28.794 256 28.84 z M 436.28 156.68 C 425.99701 166.11099 413.25099 174.40001 398.32 181.48 C 361.17804 199.02498 311.15994 209.493 256 209.52 C 214.63704 209.52 176.14397 203.59999 143.84 193.28 C 115.82103 184.26701 92.403983 172.05798 75.72 156.8 L 75.72 221.56 C 77.771998 225.962 80.722004 230.392 84.68 234.84 C 93.210991 244.41599 106.28602 253.69001 122.96 261.56 C 156.27997 277.36298 203.62805 287.508 256 287.48 C 295.28496 287.489 331.71603 281.82899 361.56 272.28 C 391.41297 262.79501 414.58001 249.23499 427.36 234.84 C 431.317 230.392 434.229 225.962 436.28 221.56 L 436.28 156.68 z M 436.28 256.32 C 425.99701 265.75099 413.25099 274.04001 398.32 281.12 C 361.17804 298.65798 311.15994 309.092 256 309.12 C 214.63704 309.11 176.14397 303.19099 143.84 292.88 C 115.82103 283.87601 92.403983 271.68898 75.72 256.44 L 75.72 321.2 C 77.771998 325.592 80.722004 330.024 84.68 334.48 C 93.210991 344.05699 106.28602 353.33001 122.96 361.2 C 156.27997 377.00998 203.62805 387.147 256 387.12 C 295.28496 387.128 331.71603 381.46799 361.56 371.92 C 391.41297 362.42601 414.58001 348.87599 427.36 334.48 C 431.317 330.024 434.229 325.602 436.28 321.2 L 436.28 256.32 z M 436.28 355.96 C 425.99701 365.38999 413.25099 373.68001 398.32 380.76 C 361.17804 398.29598 311.15994 408.733 256 408.76 C 214.63704 408.751 176.14397 402.83999 143.84 392.52 C 115.82103 383.51501 92.403983 371.32998 75.72 356.08 L 75.72 405.44 C 75.729 409.733 76.600002 413.914 78.48 418.28 C 80.358998 422.628 83.294004 427.142 87.36 431.68 C 95.437992 440.76599 108.12302 449.84501 124.48 457.56 C 157.16497 473.08198 204.09105 483.206 256 483.16 C 290.07397 483.169 321.96203 478.82799 349.12 471.44 C 376.27697 464.07101 398.67301 453.53999 413.64 441.84 C 423.65199 434.06101 430.252 425.87699 433.52 418.28 C 435.399 413.915 436.271 409.733 436.28 405.44 L 436.28 355.96 z " />
<path
   class="st0"
   d="M 459.991,82.262 C 454.173,68.874 444.125,57.346 431.381,47.408 412.202,32.512 386.623,20.886 356.707,12.717 326.789,4.575 292.498,0 256,0 200.378,0.036 149.929,10.548 112.152,28.374 93.263,37.333 77.46,48.134 65.842,61.087 c -5.791,6.48 -10.52,13.542 -13.832,21.176 -3.304,7.634 -5.146,15.866 -5.138,24.29 V 405.44 c -0.008,8.423 1.834,16.665 5.138,24.29 5.818,13.388 15.866,24.915 28.61,34.863 19.18,14.896 44.757,26.523 74.675,34.692 29.916,8.14 64.208,12.707 100.705,12.715 55.632,-0.046 106.07,-10.546 143.848,-28.383 18.888,-8.958 34.691,-19.751 46.309,-32.712 5.792,-6.472 10.52,-13.534 13.833,-21.176 3.304,-7.624 5.146,-15.867 5.137,-24.29 V 106.552 c 0.01,-8.424 -1.832,-16.656 -5.136,-24.29 z M 436.282,405.44 c -0.009,4.293 -0.889,8.478 -2.768,12.843 -3.268,7.597 -9.849,15.766 -19.861,23.545 -14.967,11.7 -37.369,22.257 -64.526,29.626 -27.158,7.388 -59.054,11.709 -93.128,11.7 -51.909,0.046 -98.818,-10.084 -131.503,-25.606 -16.357,-7.715 -29.064,-16.774 -37.142,-25.86 -4.066,-4.538 -6.989,-9.058 -8.868,-13.406 -1.88,-4.366 -2.76,-8.55 -2.769,-12.843 v -49.36 c 16.684,15.25 40.111,27.43 68.13,36.435 32.304,10.32 70.789,16.247 112.152,16.256 55.16,-0.027 105.164,-10.493 142.306,-28.029 14.931,-7.08 27.693,-15.368 37.976,-24.798 v 49.497 z m 0,-84.242 c -2.051,4.402 -4.983,8.814 -8.94,13.27 -12.78,14.396 -35.917,27.948 -65.77,37.442 -29.844,9.548 -66.287,15.23 -105.572,15.222 -52.372,0.027 -99.726,-10.14 -133.046,-25.95 -16.674,-7.87 -29.763,-17.137 -38.294,-26.714 -3.958,-4.456 -6.89,-8.868 -8.942,-13.26 v -64.754 c 16.684,15.249 40.111,27.43 68.13,36.434 32.304,10.311 70.789,16.238 112.152,16.248 55.16,-0.028 105.164,-10.492 142.306,-28.03 14.931,-7.08 27.693,-15.357 37.976,-24.788 z m 0,-99.626 c -2.051,4.402 -4.983,8.813 -8.94,13.261 -12.78,14.395 -35.917,27.956 -65.77,37.441 -29.844,9.549 -66.287,15.231 -105.572,15.222 -52.372,0.028 -99.726,-10.138 -133.046,-25.941 -16.674,-7.87 -29.763,-17.146 -38.294,-26.722 -3.958,-4.448 -6.89,-8.859 -8.942,-13.261 v -64.754 c 16.684,15.258 40.111,27.43 68.13,36.443 32.304,10.32 70.789,16.247 112.152,16.247 55.16,-0.027 105.164,-10.484 142.306,-28.029 14.931,-7.08 27.693,-15.358 37.976,-24.789 z m 0,-99.636 c -2.051,4.403 -4.983,8.823 -8.94,13.271 -12.78,14.405 -35.917,27.956 -65.77,37.451 C 331.728,182.206 295.285,187.888 256,187.88 203.628,187.907 156.274,177.74 122.954,161.93 106.28,154.051 93.191,144.783 84.66,135.208 80.702,130.76 77.77,126.34 75.718,121.946 v -15.394 c 0.01,-4.294 0.89,-8.469 2.769,-12.835 3.268,-7.607 9.848,-15.766 19.86,-23.554 14.968,-11.7 37.369,-22.256 64.526,-29.617 27.158,-7.398 59.053,-11.709 93.127,-11.7 51.91,-0.046 98.819,10.085 131.504,25.606 16.356,7.706 29.054,16.765 37.142,25.86 4.066,4.538 6.988,9.05 8.868,13.406 1.878,4.366 2.758,8.541 2.768,12.835 z"
   id="path1135"
   inkscape:label="path47"
   style="display:inline"
   sodipodi:nodetypes="cccccccccccccccccccccccccccccccccccccccccccccccccccccccccccccccccccccccccccccc" /></g>
</svg>
