<?xml version="1.0" encoding="utf-8"?>
<svg viewBox="0 62.175 361.491 450"    xmlns="http://www.w3.org/2000/svg"
    preserveAspectRatio="xMidYMid meet">
  <rect x="201.266" y="76.384" fill="#7322821f" width="10.654" height="9.934" style=""/>
  <rect x="201.266" y="89.163" fill="#7322821f" width="10.654" height="9.934" style=""/>
  <rect x="160.142" y="101.943" fill="#7322821f" width="10.654" height="9.934" style=""/>
  <rect x="201.266" y="101.943" fill="#7322821f" width="10.654" height="9.934" style=""/>
  <rect x="119.019" y="114.72" fill="#7322821f" width="10.654" height="9.934" style=""/>
  <rect x="160.142" y="114.72" fill="#7322821f" width="10.654" height="9.934" style=""/>
  <rect x="173.851" y="114.72" fill="#7322821f" width="10.654" height="9.934" style=""/>
  <rect x="187.558" y="114.72" fill="#7322821f" width="10.654" height="9.934" style=""/>
  <rect x="201.266" y="114.72" fill="#7322821f" width="10.654" height="9.934" style=""/>
  <rect x="105.312" y="127.5" fill="#7322821f" width="10.654" height="9.934" style=""/>
  <rect x="146.435" y="127.5" fill="#7322821f" width="10.654" height="9.934" style=""/>
  <rect x="160.142" y="127.5" fill="#7322821f" width="10.654" height="9.934" style=""/>
  <rect x="173.851" y="127.5" fill="#7322821f" width="10.654" height="9.934" style=""/>
  <rect x="187.558" y="127.5" fill="#7322821f" width="10.654" height="9.934" style=""/>
  <rect x="105.312" y="140.279" fill="#7322821f" width="10.654" height="9.934" style=""/>
  <rect x="132.727" y="140.279" fill="#7322821f" width="10.654" height="9.934" style=""/>
  <rect x="146.435" y="140.279" fill="#7322821f" width="10.654" height="9.934" style=""/>
  <rect x="160.142" y="140.279" fill="#7322821f" width="10.654" height="9.934" style=""/>
  <rect x="173.851" y="140.279" fill="#7322821f" width="10.654" height="9.934" style=""/>
  <rect x="91.603" y="153.058" fill="#7322821f" width="10.654" height="9.934" style=""/>
  <rect x="119.019" y="153.058" fill="#7322821f" width="10.654" height="9.934" style=""/>
  <rect x="132.727" y="153.058" fill="#7322821f" width="10.654" height="9.934" style=""/>
  <rect x="146.435" y="153.058" fill="#7322821f" width="10.654" height="9.934" style=""/>
  <rect x="160.142" y="153.058" fill="#7322821f" width="10.654" height="9.934" style=""/>
  <rect x="187.558" y="153.058" fill="#7322821f" width="10.654" height="9.934" style=""/>
  <rect x="201.266" y="153.058" fill="#7322821f" width="10.654" height="9.934" style=""/>
  <rect x="214.973" y="153.058" fill="#7322821f" width="10.654" height="9.934" style=""/>
  <rect x="228.68" y="153.058" fill="#7322821f" width="10.654" height="9.934" style=""/>
  <rect x="242.449" y="153.058" fill="#7322821f" width="10.654" height="9.934" style=""/>
  <rect x="91.603" y="165.837" fill="#7322821f" width="10.654" height="9.934" style=""/>
  <rect x="119.019" y="165.837" fill="#7322821f" width="10.654" height="9.934" style=""/>
  <rect x="132.727" y="165.837" fill="#7322821f" width="10.654" height="9.934" style=""/>
  <rect x="146.435" y="165.837" fill="#7322821f" width="10.654" height="9.934" style=""/>
  <rect x="160.142" y="165.837" fill="#7322821f" width="10.654" height="9.934" style=""/>
  <rect x="173.851" y="165.837" fill="#7322821f" width="10.654" height="9.934" style=""/>
  <rect x="187.558" y="165.837" fill="#7322821f" width="10.654" height="9.934" style=""/>
  <rect x="201.266" y="165.837" fill="#7322821f" width="10.654" height="9.934" style=""/>
  <rect x="214.973" y="165.837" fill="#7322821f" width="10.654" height="9.934" style=""/>
  <rect x="119.019" y="178.616" fill="#7322821f" width="10.654" height="9.934" style=""/>
  <rect x="132.727" y="178.616" fill="#7322821f" width="10.654" height="9.934" style=""/>
  <rect x="146.435" y="178.616" fill="#7322821f" width="10.654" height="9.934" style=""/>
  <rect x="160.142" y="178.616" fill="#7322821f" width="10.654" height="9.934" style=""/>
  <rect x="173.851" y="178.616" fill="#7322821f" width="10.654" height="9.934" style=""/>
  <rect x="187.558" y="178.616" fill="#7322821f" width="10.654" height="9.934" style=""/>
  <rect x="201.266" y="178.616" fill="#7322821f" width="10.654" height="9.934" style=""/>
  <rect x="214.973" y="178.616" fill="#7322821f" width="10.654" height="9.934" style=""/>
  <rect x="228.68" y="178.616" fill="#7322821f" width="10.654" height="9.934" style=""/>
  <rect x="119.019" y="191.395" fill="#7322821f" width="10.654" height="9.934" style=""/>
  <rect x="132.727" y="191.395" fill="#7322821f" width="10.654" height="9.934" style=""/>
  <rect x="146.435" y="191.395" fill="#7322821f" width="10.654" height="9.934" style=""/>
  <rect x="160.142" y="191.395" fill="#7322821f" width="10.654" height="9.934" style=""/>
  <rect x="173.851" y="191.395" fill="#7322821f" width="10.654" height="9.934" style=""/>
  <rect x="187.558" y="191.395" fill="#7322821f" width="10.654" height="9.934" style=""/>
  <rect x="201.266" y="191.395" fill="#7322821f" width="10.654" height="9.934" style=""/>
  <rect x="214.973" y="191.395" fill="#7322821f" width="10.654" height="9.934" style=""/>
  <rect x="119.019" y="204.229" fill="#7322821f" width="10.654" height="9.934" style=""/>
  <rect x="132.727" y="204.229" fill="#7322821f" width="10.654" height="9.934" style=""/>
  <rect x="146.435" y="204.229" fill="#7322821f" width="10.654" height="9.934" style=""/>
  <rect x="160.142" y="204.229" fill="#7322821f" width="10.654" height="9.934" style=""/>
  <rect x="173.851" y="204.229" fill="#7322821f" width="10.654" height="9.934" style=""/>
  <rect x="187.558" y="204.229" fill="#7322821f" width="10.654" height="9.934" style=""/>
  <rect x="201.266" y="204.229" fill="#7322821f" width="10.654" height="9.934" style=""/>
  <rect x="214.973" y="204.229" fill="#7322821f" width="10.654" height="9.934" style=""/>
  <rect x="146.435" y="217.008" fill="#7322821f" width="10.654" height="9.934" style=""/>
  <rect x="160.142" y="217.008" fill="#7322821f" width="10.654" height="9.934" style=""/>
  <rect x="173.851" y="217.008" fill="#7322821f" width="10.654" height="9.934" style=""/>
  <rect x="187.558" y="217.008" fill="#7322821f" width="10.654" height="9.934" style=""/>
  <rect x="201.266" y="217.008" fill="#7322821f" width="10.654" height="9.934" style=""/>
  <rect x="214.973" y="217.008" fill="#7322821f" width="10.654" height="9.934" style=""/>
  <rect x="119.019" y="229.788" fill="#7322821f" width="10.654" height="9.934" style=""/>
  <rect x="146.435" y="229.788" fill="#7322821f" width="10.654" height="9.934" style=""/>
  <rect x="173.851" y="229.788" fill="#7322821f" width="10.654" height="9.934" style=""/>
  <rect x="187.558" y="229.788" fill="#7322821f" width="10.654" height="9.934" style=""/>
  <rect x="214.973" y="229.788" fill="#7322821f" width="10.654" height="9.934" style=""/>
  <rect x="228.68" y="229.788" fill="#7322821f" width="10.654" height="9.934" style=""/>
  <rect x="119.019" y="242.566" fill="#7322821f" width="10.654" height="9.934" style=""/>
  <rect x="132.727" y="242.566" fill="#7322821f" width="10.654" height="9.934" style=""/>
  <rect x="146.435" y="242.566" fill="#7322821f" width="10.654" height="9.934" style=""/>
  <rect x="160.142" y="242.566" fill="#7322821f" width="10.654" height="9.934" style=""/>
  <rect x="173.851" y="242.566" fill="#7322821f" width="10.654" height="9.934" style=""/>
  <rect x="187.558" y="242.566" fill="#7322821f" width="10.654" height="9.934" style=""/>
  <rect x="201.266" y="242.566" fill="#7322821f" width="10.654" height="9.934" style=""/>
  <rect x="214.973" y="242.566" fill="#7322821f" width="10.654" height="9.934" style=""/>
  <rect x="228.68" y="242.566" fill="#7322821f" width="10.654" height="9.934" style=""/>
  <rect x="242.449" y="242.566" fill="#7322821f" width="10.654" height="9.934" style=""/>
  <rect x="91.603" y="255.345" fill="#7322821f" width="10.654" height="9.934" style=""/>
  <rect x="132.727" y="255.345" fill="#7322821f" width="10.654" height="9.934" style=""/>
  <rect x="173.851" y="255.345" fill="#7322821f" width="10.654" height="9.934" style=""/>
  <rect x="187.558" y="255.345" fill="#7322821f" width="10.654" height="9.934" style=""/>
  <rect x="201.266" y="255.345" fill="#7322821f" width="10.654" height="9.934" style=""/>
  <rect x="214.973" y="255.345" fill="#7322821f" width="10.654" height="9.934" style=""/>
  <rect x="228.68" y="255.345" fill="#7322821f" width="10.654" height="9.934" style=""/>
  <rect x="64.129" y="268.124" fill="#7322821f" width="10.654" height="9.934" style=""/>
  <rect x="77.837" y="268.124" fill="#7322821f" width="10.654" height="9.934" style=""/>
  <rect x="91.603" y="268.124" fill="#7322821f" width="10.654" height="9.934" style=""/>
  <rect x="105.312" y="268.124" fill="#7322821f" width="10.654" height="9.934" style=""/>
  <rect x="119.019" y="268.124" fill="#7322821f" width="10.654" height="9.934" style=""/>
  <rect x="160.142" y="268.124" fill="#7322821f" width="10.654" height="9.934" style=""/>
  <rect x="173.851" y="268.124" fill="#7322821f" width="10.654" height="9.934" style=""/>
  <rect x="187.558" y="268.124" fill="#7322821f" width="10.654" height="9.934" style=""/>
  <rect x="201.266" y="268.124" fill="#7322821f" width="10.654" height="9.934" style=""/>
  <rect x="214.973" y="268.124" fill="#7322821f" width="10.654" height="9.934" style=""/>
  <rect x="228.68" y="268.124" fill="#7322821f" width="10.654" height="9.934" style=""/>
  <rect x="242.449" y="268.124" fill="#7322821f" width="10.654" height="9.934" style=""/>
  <rect x="64.129" y="280.903" fill="#7322821f" width="10.654" height="9.934" style=""/>
  <rect x="77.837" y="280.903" fill="#7322821f" width="10.654" height="9.934" style=""/>
  <rect x="91.603" y="280.903" fill="#7322821f" width="10.654" height="9.934" style=""/>
  <rect x="105.312" y="280.903" fill="#7322821f" width="10.654" height="9.934" style=""/>
  <rect x="132.727" y="280.903" fill="#7322821f" width="10.654" height="9.934" style=""/>
  <rect x="201.266" y="280.903" fill="#7322821f" width="10.654" height="9.934" style=""/>
  <rect x="214.973" y="280.903" fill="#7322821f" width="10.654" height="9.934" style=""/>
  <rect x="228.68" y="280.903" fill="#7322821f" width="10.654" height="9.934" style=""/>
  <rect x="256.156" y="280.903" fill="#7322821f" width="10.654" height="9.934" style=""/>
  <rect x="64.129" y="293.681" fill="#7322821f" width="10.654" height="9.934" style=""/>
  <rect x="77.837" y="293.681" fill="#7322821f" width="10.654" height="9.934" style=""/>
  <rect x="91.603" y="293.681" fill="#7322821f" width="10.654" height="9.934" style=""/>
  <rect x="105.312" y="293.681" fill="#7322821f" width="10.654" height="9.934" style=""/>
  <rect x="119.019" y="293.681" fill="#7322821f" width="10.654" height="9.934" style=""/>
  <rect x="132.727" y="306.537" fill="#7322821f" width="10.654" height="9.934" style=""/>
  <rect x="201.266" y="293.681" fill="#7322821f" width="10.654" height="9.934" style=""/>
  <rect x="214.973" y="293.681" fill="#7322821f" width="10.654" height="9.934" style=""/>
  <rect x="228.68" y="293.681" fill="#7322821f" width="10.654" height="9.934" style=""/>
  <rect x="242.449" y="293.681" fill="#7322821f" width="10.654" height="9.934" style=""/>
  <rect x="256.156" y="293.681" fill="#7322821f" width="10.654" height="9.934" style=""/>
  <rect x="269.864" y="293.681" fill="#7322821f" width="10.654" height="9.934" style=""/>
  <rect x="23.005" y="306.461" fill="#7322821f" width="10.654" height="9.934" style=""/>
  <rect x="36.713" y="306.461" fill="#7322821f" width="10.654" height="9.934" style=""/>
  <rect x="50.421" y="306.461" fill="#7322821f" width="10.654" height="9.934" style=""/>
  <rect x="64.129" y="306.461" fill="#7322821f" width="10.654" height="9.934" style=""/>
  <rect x="77.837" y="306.461" fill="#7322821f" width="10.654" height="9.934" style=""/>
  <rect x="91.603" y="306.461" fill="#7322821f" width="10.654" height="9.934" style=""/>
  <rect x="105.312" y="306.461" fill="#7322821f" width="10.654" height="9.934" style=""/>
  <rect x="119.019" y="306.461" fill="#7322821f" width="10.654" height="9.934" style=""/>
  <rect x="201.266" y="306.461" fill="#7322821f" width="10.654" height="9.934" style=""/>
  <rect x="214.973" y="306.461" fill="#7322821f" width="10.654" height="9.934" style=""/>
  <rect x="228.68" y="306.461" fill="#7322821f" width="10.654" height="9.934" style=""/>
  <rect x="242.449" y="306.461" fill="#7322821f" width="10.654" height="9.934" style=""/>
  <rect x="256.156" y="306.461" fill="#7322821f" width="10.654" height="9.934" style=""/>
  <rect x="269.864" y="306.461" fill="#7322821f" width="10.654" height="9.934" style=""/>
  <rect x="283.572" y="306.461" fill="#7322821f" width="10.654" height="9.934" style=""/>
  <rect x="23.005" y="319.24" fill="#7322821f" width="10.654" height="9.934" style=""/>
  <rect x="36.713" y="319.24" fill="#7322821f" width="10.654" height="9.934" style=""/>
  <rect x="50.421" y="319.24" fill="#7322821f" width="10.654" height="9.934" style=""/>
  <rect x="64.129" y="319.24" fill="#7322821f" width="10.654" height="9.934" style=""/>
  <rect x="77.837" y="319.24" fill="#7322821f" width="10.654" height="9.934" style=""/>
  <rect x="91.603" y="319.24" fill="#7322821f" width="10.654" height="9.934" style=""/>
  <rect x="105.312" y="319.24" fill="#7322821f" width="10.654" height="9.934" style=""/>
  <rect x="214.973" y="319.24" fill="#7322821f" width="10.654" height="9.934" style=""/>
  <rect x="228.68" y="319.24" fill="#7322821f" width="10.654" height="9.934" style=""/>
  <rect x="242.449" y="319.24" fill="#7322821f" width="10.654" height="9.934" style=""/>
  <rect x="256.156" y="319.24" fill="#7322821f" width="10.654" height="9.934" style=""/>
  <rect x="269.864" y="319.24" fill="#7322821f" width="10.654" height="9.934" style=""/>
  <rect x="23.005" y="332.019" fill="#7322821f" width="10.654" height="9.934" style=""/>
  <rect x="36.713" y="332.019" fill="#7322821f" width="10.654" height="9.934" style=""/>
  <rect x="50.421" y="332.019" fill="#7322821f" width="10.654" height="9.934" style=""/>
  <rect x="64.129" y="332.019" fill="#7322821f" width="10.654" height="9.934" style=""/>
  <rect x="77.837" y="332.019" fill="#7322821f" width="10.654" height="9.934" style=""/>
  <rect x="91.603" y="332.019" fill="#7322821f" width="10.654" height="9.934" style=""/>
  <rect x="105.312" y="332.019" fill="#7322821f" width="10.654" height="9.934" style=""/>
  <rect x="119.019" y="332.019" fill="#7322821f" width="10.654" height="9.934" style=""/>
  <rect x="228.68" y="332.019" fill="#7322821f" width="10.654" height="9.934" style=""/>
  <rect x="256.156" y="332.019" fill="#7322821f" width="10.654" height="9.934" style=""/>
  <rect x="269.864" y="332.019" fill="#7322821f" width="10.654" height="9.934" style=""/>
  <rect x="283.572" y="332.019" fill="#7322821f" width="10.654" height="9.934" style=""/>
  <rect x="23.005" y="344.853" fill="#7322821f" width="10.654" height="9.934" style=""/>
  <rect x="36.713" y="344.853" fill="#7322821f" width="10.654" height="9.934" style=""/>
  <rect x="50.421" y="344.853" fill="#7322821f" width="10.654" height="9.934" style=""/>
  <rect x="64.129" y="344.853" fill="#7322821f" width="10.654" height="9.934" style=""/>
  <rect x="77.837" y="344.853" fill="#7322821f" width="10.654" height="9.934" style=""/>
  <rect x="91.603" y="344.853" fill="#7322821f" width="10.654" height="9.934" style=""/>
  <rect x="105.312" y="344.853" fill="#7322821f" width="10.654" height="9.934" style=""/>
  <rect x="119.019" y="344.853" fill="#7322821f" width="10.654" height="9.934" style=""/>
  <rect x="173.851" y="344.853" fill="#7322821f" width="10.654" height="9.934" style=""/>
  <rect x="187.558" y="344.853" fill="#7322821f" width="10.654" height="9.934" style=""/>
  <rect x="201.266" y="344.853" fill="#7322821f" width="10.654" height="9.934" style=""/>
  <rect x="214.973" y="344.853" fill="#7322821f" width="10.654" height="9.934" style=""/>
  <rect x="228.68" y="344.853" fill="#7322821f" width="10.654" height="9.934" style=""/>
  <rect x="242.449" y="344.853" fill="#7322821f" width="10.654" height="9.934" style=""/>
  <rect x="256.156" y="344.853" fill="#7322821f" width="10.654" height="9.934" style=""/>
  <rect x="269.864" y="344.853" fill="#7322821f" width="10.654" height="9.934" style=""/>
  <rect x="283.572" y="344.853" fill="#7322821f" width="10.654" height="9.934" style=""/>
  <rect x="297.279" y="344.853" fill="#7322821f" width="10.654" height="9.934" style=""/>
  <rect x="36.713" y="357.633" fill="#7322821f" width="10.654" height="9.934" style=""/>
  <rect x="50.421" y="357.633" fill="#7322821f" width="10.654" height="9.934" style=""/>
  <rect x="64.129" y="357.633" fill="#7322821f" width="10.654" height="9.934" style=""/>
  <rect x="77.837" y="357.633" fill="#7322821f" width="10.654" height="9.934" style=""/>
  <rect x="91.603" y="357.633" fill="#7322821f" width="10.654" height="9.934" style=""/>
  <rect x="105.312" y="357.633" fill="#7322821f" width="10.654" height="9.934" style=""/>
  <rect x="119.019" y="357.633" fill="#7322821f" width="10.654" height="9.934" style=""/>
  <rect x="173.851" y="357.633" fill="#7322821f" width="10.654" height="9.934" style=""/>
  <rect x="187.558" y="357.633" fill="#7322821f" width="10.654" height="9.934" style=""/>
  <rect x="201.266" y="357.633" fill="#7322821f" width="10.654" height="9.934" style=""/>
  <rect x="214.973" y="357.633" fill="#7322821f" width="10.654" height="9.934" style=""/>
  <rect x="228.68" y="357.633" fill="#7322821f" width="10.654" height="9.934" style=""/>
  <rect x="242.449" y="357.633" fill="#7322821f" width="10.654" height="9.934" style=""/>
  <rect x="269.864" y="357.633" fill="#7322821f" width="10.654" height="9.934" style=""/>
  <rect x="283.572" y="357.633" fill="#7322821f" width="10.654" height="9.934" style=""/>
  <rect x="297.279" y="357.633" fill="#7322821f" width="10.654" height="9.934" style=""/>
  <rect x="36.713" y="370.412" fill="#7322821f" width="10.654" height="9.934" style=""/>
  <rect x="50.421" y="370.412" fill="#7322821f" width="10.654" height="9.934" style=""/>
  <rect x="64.129" y="370.412" fill="#7322821f" width="10.654" height="9.934" style=""/>
  <rect x="77.837" y="370.412" fill="#7322821f" width="10.654" height="9.934" style=""/>
  <rect x="91.603" y="370.412" fill="#7322821f" width="10.654" height="9.934" style=""/>
  <rect x="105.312" y="370.412" fill="#7322821f" width="10.654" height="9.934" style=""/>
  <rect x="119.019" y="370.412" fill="#7322821f" width="10.654" height="9.934" style=""/>
  <rect x="187.558" y="370.412" fill="#7322821f" width="10.654" height="9.934" style=""/>
  <rect x="201.266" y="370.412" fill="#7322821f" width="10.654" height="9.934" style=""/>
  <rect x="214.973" y="370.412" fill="#7322821f" width="10.654" height="9.934" style=""/>
  <rect x="228.68" y="370.412" fill="#7322821f" width="10.654" height="9.934" style=""/>
  <rect x="242.449" y="370.412" fill="#7322821f" width="10.654" height="9.934" style=""/>
  <rect x="256.156" y="370.412" fill="#7322821f" width="10.654" height="9.934" style=""/>
  <rect x="269.864" y="370.412" fill="#7322821f" width="10.654" height="9.934" style=""/>
  <rect x="283.572" y="370.412" fill="#7322821f" width="10.654" height="9.934" style=""/>
  <rect x="297.279" y="370.412" fill="#7322821f" width="10.654" height="9.934" style=""/>
  <rect x="310.987" y="357.741" fill="#7322821f" width="10.654" height="9.934" style=""/>
  <rect x="324.694" y="357.741" fill="#7322821f" width="10.654" height="9.934" style=""/>
  <rect x="338.403" y="370.412" fill="#7322821f" width="10.654" height="9.934" style=""/>
  <rect x="23.005" y="383.19" fill="#7322821f" width="10.654" height="9.934" style=""/>
  <rect x="36.713" y="383.19" fill="#7322821f" width="10.654" height="9.934" style=""/>
  <rect x="50.421" y="383.19" fill="#7322821f" width="10.654" height="9.934" style=""/>
  <rect x="64.129" y="383.19" fill="#7322821f" width="10.654" height="9.934" style=""/>
  <rect x="77.837" y="383.19" fill="#7322821f" width="10.654" height="9.934" style=""/>
  <rect x="91.603" y="383.19" fill="#7322821f" width="10.654" height="9.934" style=""/>
  <rect x="105.312" y="383.19" fill="#7322821f" width="10.654" height="9.934" style=""/>
  <rect x="187.558" y="383.19" fill="#7322821f" width="10.654" height="9.934" style=""/>
  <rect x="201.266" y="383.19" fill="#7322821f" width="10.654" height="9.934" style=""/>
  <rect x="214.973" y="383.19" fill="#7322821f" width="10.654" height="9.934" style=""/>
  <rect x="228.68" y="383.19" fill="#7322821f" width="10.654" height="9.934" style=""/>
  <rect x="256.156" y="383.19" fill="#7322821f" width="10.654" height="9.934" style=""/>
  <rect x="269.864" y="383.19" fill="#7322821f" width="10.654" height="9.934" style=""/>
  <rect x="283.572" y="383.19" fill="#7322821f" width="10.654" height="9.934" style=""/>
  <rect x="297.279" y="383.19" fill="#7322821f" width="10.654" height="9.934" style=""/>
  <rect x="310.987" y="383.19" fill="#7322821f" width="10.654" height="9.934" style=""/>
  <rect x="324.694" y="383.19" fill="#7322821f" width="10.654" height="9.934" style=""/>
  <rect x="338.403" y="383.19" fill="#7322821f" width="10.654" height="9.934" style=""/>
  <rect x="9.298" y="395.969" fill="#7322821f" width="10.654" height="9.934" style=""/>
  <rect x="23.005" y="395.969" fill="#7322821f" width="10.654" height="9.934" style=""/>
  <rect x="36.713" y="395.969" fill="#7322821f" width="10.654" height="9.934" style=""/>
  <rect x="50.421" y="395.969" fill="#7322821f" width="10.654" height="9.934" style=""/>
  <rect x="64.129" y="395.969" fill="#7322821f" width="10.654" height="9.934" style=""/>
  <rect x="77.837" y="395.969" fill="#7322821f" width="10.654" height="9.934" style=""/>
  <rect x="91.603" y="395.969" fill="#7322821f" width="10.654" height="9.934" style=""/>
  <rect x="173.851" y="395.969" fill="#7322821f" width="10.654" height="9.934" style=""/>
  <rect x="187.558" y="395.969" fill="#7322821f" width="10.654" height="9.934" style=""/>
  <rect x="201.266" y="395.969" fill="#7322821f" width="10.654" height="9.934" style=""/>
  <rect x="214.973" y="395.969" fill="#7322821f" width="10.654" height="9.934" style=""/>
  <rect x="228.68" y="395.969" fill="#7322821f" width="10.654" height="9.934" style=""/>
  <rect x="242.449" y="395.969" fill="#7322821f" width="10.654" height="9.934" style=""/>
  <rect x="256.156" y="395.969" fill="#7322821f" width="10.654" height="9.934" style=""/>
  <rect x="283.572" y="395.969" fill="#7322821f" width="10.654" height="9.934" style=""/>
  <rect x="297.279" y="395.969" fill="#7322821f" width="10.654" height="9.934" style=""/>
  <rect x="324.694" y="395.969" fill="#7322821f" width="10.654" height="9.934" style=""/>
  <rect x="23.005" y="408.749" fill="#7322821f" width="10.654" height="9.934" style=""/>
  <rect x="36.713" y="408.749" fill="#7322821f" width="10.654" height="9.934" style=""/>
  <rect x="50.421" y="408.749" fill="#7322821f" width="10.654" height="9.934" style=""/>
  <rect x="64.129" y="408.749" fill="#7322821f" width="10.654" height="9.934" style=""/>
  <rect x="160.142" y="408.749" fill="#7322821f" width="10.654" height="9.934" style=""/>
  <rect x="173.851" y="408.749" fill="#7322821f" width="10.654" height="9.934" style=""/>
  <rect x="187.558" y="408.749" fill="#7322821f" width="10.654" height="9.934" style=""/>
  <rect x="201.266" y="408.749" fill="#7322821f" width="10.654" height="9.934" style=""/>
  <rect x="214.973" y="408.749" fill="#7322821f" width="10.654" height="9.934" style=""/>
  <rect x="228.68" y="408.749" fill="#7322821f" width="10.654" height="9.934" style=""/>
  <rect x="242.449" y="408.749" fill="#7322821f" width="10.654" height="9.934" style=""/>
  <rect x="256.156" y="408.749" fill="#7322821f" width="10.654" height="9.934" style=""/>
  <rect x="269.864" y="408.749" fill="#7322821f" width="10.654" height="9.934" style=""/>
  <rect x="283.572" y="408.749" fill="#7322821f" width="10.654" height="9.934" style=""/>
  <rect x="297.279" y="408.749" fill="#7322821f" width="10.654" height="9.934" style=""/>
  <rect x="310.987" y="408.749" fill="#7322821f" width="10.654" height="9.934" style=""/>
  <rect x="23.005" y="421.527" fill="#7322821f" width="10.654" height="9.934" style=""/>
  <rect x="36.713" y="421.527" fill="#7322821f" width="10.654" height="9.934" style=""/>
  <rect x="201.266" y="421.527" fill="#7322821f" width="10.654" height="9.934" style=""/>
  <rect x="214.973" y="421.527" fill="#7322821f" width="10.654" height="9.934" style=""/>
  <rect x="228.68" y="421.527" fill="#7322821f" width="10.654" height="9.934" style=""/>
  <rect x="242.449" y="421.527" fill="#7322821f" width="10.654" height="9.934" style=""/>
  <rect x="269.864" y="421.527" fill="#7322821f" width="10.654" height="9.934" style=""/>
  <rect x="297.279" y="421.527" fill="#7322821f" width="10.654" height="9.934" style=""/>
  <rect x="173.851" y="434.306" fill="#7322821f" width="10.654" height="9.934" style=""/>
  <rect x="187.558" y="434.306" fill="#7322821f" width="10.654" height="9.934" style=""/>
  <rect x="201.266" y="434.306" fill="#7322821f" width="10.654" height="9.934" style=""/>
  <rect x="214.973" y="434.306" fill="#7322821f" width="10.654" height="9.934" style=""/>
  <rect x="228.68" y="434.306" fill="#7322821f" width="10.654" height="9.934" style=""/>
  <rect x="242.449" y="434.306" fill="#7322821f" width="10.654" height="9.934" style=""/>
  <rect x="256.156" y="434.306" fill="#7322821f" width="10.654" height="9.934" style=""/>
  <rect x="269.864" y="434.306" fill="#7322821f" width="10.654" height="9.934" style=""/>
  <rect x="297.279" y="434.306" fill="#7322821f" width="10.654" height="9.934" style=""/>
  <rect x="310.987" y="434.306" fill="#7322821f" width="10.654" height="9.934" style=""/>
  <rect x="324.694" y="434.306" fill="#7322821f" width="10.654" height="9.934" style=""/>
  <rect x="173.851" y="447.085" fill="#7322821f" width="10.654" height="9.934" style=""/>
  <rect x="187.558" y="447.085" fill="#7322821f" width="10.654" height="9.934" style=""/>
  <rect x="214.973" y="447.085" fill="#7322821f" width="10.654" height="9.934" style=""/>
  <rect x="228.68" y="447.085" fill="#7322821f" width="10.654" height="9.934" style=""/>
  <rect x="256.156" y="447.085" fill="#7322821f" width="10.654" height="9.934" style=""/>
  <rect x="269.864" y="447.085" fill="#7322821f" width="10.654" height="9.934" style=""/>
  <rect x="283.572" y="447.085" fill="#7322821f" width="10.654" height="9.934" style=""/>
  <rect x="297.279" y="447.085" fill="#7322821f" width="10.654" height="9.934" style=""/>
  <rect x="310.987" y="447.085" fill="#7322821f" width="10.654" height="9.934" style=""/>
  <rect x="173.851" y="459.864" fill="#7322821f" width="10.654" height="9.934" style=""/>
  <rect x="187.558" y="459.864" fill="#7322821f" width="10.654" height="9.934" style=""/>
  <rect x="256.156" y="459.864" fill="#7322821f" width="10.654" height="9.934" style=""/>
  <rect x="146.435" y="472.698" fill="#7322821f" width="10.654" height="9.934" style=""/>
  <rect x="160.142" y="472.698" fill="#7322821f" width="10.654" height="9.934" style=""/>
  <rect x="187.558" y="472.698" fill="#7322821f" width="10.654" height="9.934" style=""/>
  <rect x="119.019" y="485.478" fill="#7322821f" width="10.654" height="9.934" style=""/>
  <rect x="310.987" y="370.412" fill="#7322821f" width="10.654" height="9.934" style=""/>
  <rect x="214.962" y="332.008" width="10.654" height="9.934" style="fill: #732282;"/>
  <rect x="132.673" y="294.091" width="10.654" height="9.934" style="fill: #732282;"/>
  <rect x="283.523" y="434.32" width="10.654" height="9.934" style="fill: #732282;"/>
  <rect x="324.924" y="408.769" width="10.654" height="9.934" style="fill: #732282;"/>
  <rect x="242.442" y="447.111" width="10.654" height="9.934" style="fill: #732282;"/>
  <rect x="324.694" y="370.412" width="10.654" height="9.934" style="fill: #732282;"/>
  <rect x="283.67" y="421.495" width="10.654" height="9.934" style="fill: #732282;"/>
  <rect x="187.549" y="408.827" width="10.654" height="9.934" style="fill: #732282;"/>
  <rect x="311.127" y="395.999" width="10.654" height="9.934" style="fill: #732282;"/>
  <rect x="256.017" y="421.476" width="10.654" height="9.934" style="fill: #732282;"/>
  <rect x="215.021" y="409.242" width="10.654" height="9.934" style="fill: #732282;"/>
  <rect x="201.331" y="447.079" width="10.654" height="9.934" style="fill: #732282;"/>
  <rect x="160.014" y="459.847" width="10.654" height="9.934" style="fill: #732282;"/>
  <rect x="242.378" y="383.2" width="10.654" height="9.934" style="fill: #732282;"/>
  <rect x="283.562" y="319.208" width="10.654" height="9.934" style="fill: #732282;"/>
  <rect x="160.063" y="255.311" width="10.654" height="9.934" style="fill: #732282;"/>
  <rect x="242.448" y="332.073" width="10.654" height="9.934" style="fill: #732282;"/>
  <rect x="119.057" y="280.923" width="10.654" height="9.934" style="fill: #732282;"/>
  <rect x="242.586" y="280.851" width="10.654" height="9.934" style="fill: #732282;"/>
  <rect x="173.81" y="153.05" width="10.654" height="9.934" style="fill: #732282;"/>
  <rect x="201.325" y="229.801" width="10.654" height="9.934" style="fill: #732282;"/>
  <rect x="228.472" y="165.852" width="10.654" height="9.934" style="fill: #732282;"/>
  <rect x="269.818" y="395.993" width="10.654" height="9.934" style="fill: #732282;"/>
  <rect x="256.338" y="357.642" width="10.654" height="9.934" style="fill: #732282;"/>
  <rect x="256.578" y="306.429" width="10.654" height="9.934" style="fill: #732282;"/>
  <rect x="242.427" y="255.312" width="10.654" height="9.934" style="fill: #732282;"/>
  <rect x="160.186" y="229.808" width="10.654" height="9.934" style="fill: #732282;"/>
</svg>
