<?xml version="1.0" encoding="UTF-8"?><svg id="a" xmlns="http://www.w3.org/2000/svg" viewBox="0 0 24 24"><defs><style>.b{fill-rule:evenodd;stroke-width:0px;}</style></defs><path class="b" d="m12.02,1.8l-4.89,4.89v3.63l-4.49,4.49h0s0,0,0,0v1.23h0v2h7.85s2.18-2.18,2.18-2.18h3.63l5.06-5.06-1.41-1.41-2.54,2.54-6.34-6.34,2.37-2.37-1.41-1.41Zm-7.38,14.24h5.01s.12-.12.12-.12l-2.71-2.71-2.43,2.43v.4Zm5.01-9.04l-.52.52v3.63l-.65.65,2.71,2.71.65-.65h3.63l.52-.52-6.34-6.34Zm4.99,13.19H2.64v2h14l-1-1-1-1Z"/></svg>
